<mxfile host="app.diagrams.net" agent="Mozilla/5.0 (Windows NT 10.0; Win64; x64) AppleWebKit/537.36 (KHTML, like Gecko) Chrome/128.0.0.0 Safari/537.36" version="24.7.12">
  <diagram name="Page-1" id="XfQnMjo7J4mWLPELLFrW">
    <mxGraphModel dx="1620" dy="823" grid="0" gridSize="10" guides="1" tooltips="1" connect="1" arrows="1" fold="1" page="1" pageScale="1" pageWidth="827" pageHeight="1169" math="0" shadow="0">
      <root>
        <mxCell id="0" />
        <mxCell id="1" parent="0" />
        <UserObject label="" tags="Background" id="nstGioj7b0INnl22QBqY-7">
          <mxCell style="vsdxID=1;fillColor=#FFFFFF;gradientColor=none;shape=stencil(nZBRDoQgDERP03+WHsHFe5iISyOCQdT19kIaIxq//Jtp3zTpAFaTaUYNUkwx+F6v1EYD+AUpyRkdKCYFqACrzgf9C352LfuxyWRWg1/yhT/nRE5IsZWuZtCSK8CPeI0e/hF+jV7AJM4PO7KWCyr390bSiNtEtQM=);dashed=1;strokeColor=#000000;strokeWidth=2;spacingTop=-3;spacingBottom=-3;spacingLeft=-3;spacingRight=-3;points=[];labelBackgroundColor=none;rounded=0;html=1;whiteSpace=wrap;" vertex="1" parent="1">
            <mxGeometry x="356" y="15" width="606" height="407" as="geometry" />
          </mxCell>
        </UserObject>
        <UserObject label="" tags="Background" id="nstGioj7b0INnl22QBqY-8">
          <mxCell style="vsdxID=2;fillColor=#FFFFFF;gradientColor=none;shape=stencil(nZBRDoQgDERP03+WHsHFe5iISyOCQdT19kIaIxq//Jtp3zTpAFaTaUYNUkwx+F6v1EYD+AUpyRkdKCYFqACrzgf9C352LfuxyWRWg1/yhT/nRE5IsZWuZtCSK8CPeI0e/hF+jV7AJM4PO7KWCyr390bSiNtEtQM=);dashed=1;strokeColor=#000000;strokeWidth=2;spacingTop=-3;spacingBottom=-3;spacingLeft=-3;spacingRight=-3;points=[];labelBackgroundColor=none;rounded=0;html=1;whiteSpace=wrap;" vertex="1" parent="1">
            <mxGeometry x="1012" y="19" width="126" height="215" as="geometry" />
          </mxCell>
        </UserObject>
        <UserObject label="" tags="Background" id="nstGioj7b0INnl22QBqY-9">
          <mxCell style="vsdxID=3;fillColor=#FFFFFF;gradientColor=none;shape=stencil(nZBRDoQgDERP03+WHsHFe5iISyOCQdT19kIaIxq//Jtp3zTpAFaTaUYNUkwx+F6v1EYD+AUpyRkdKCYFqACrzgf9C352LfuxyWRWg1/yhT/nRE5IsZWuZtCSK8CPeI0e/hF+jV7AJM4PO7KWCyr390bSiNtEtQM=);dashed=1;strokeColor=#000000;strokeWidth=2;spacingTop=-3;spacingBottom=-3;spacingLeft=-3;spacingRight=-3;points=[];labelBackgroundColor=none;rounded=0;html=1;whiteSpace=wrap;" vertex="1" parent="1">
            <mxGeometry x="356" y="443" width="606" height="165" as="geometry" />
          </mxCell>
        </UserObject>
        <UserObject label="" tags="Background" id="nstGioj7b0INnl22QBqY-10">
          <mxCell style="vsdxID=4;fillColor=#FFFFFF;gradientColor=none;shape=stencil(nZBRDoQgDERP03+WHsHFe5iISyOCQdT19kIaIxq//Jtp3zTpAFaTaUYNUkwx+F6v1EYD+AUpyRkdKCYFqACrzgf9C352LfuxyWRWg1/yhT/nRE5IsZWuZtCSK8CPeI0e/hF+jV7AJM4PO7KWCyr390bSiNtEtQM=);dashed=1;strokeColor=#000000;strokeWidth=2;spacingTop=-3;spacingBottom=-3;spacingLeft=-3;spacingRight=-3;points=[];labelBackgroundColor=none;rounded=0;html=1;whiteSpace=wrap;" vertex="1" parent="1">
            <mxGeometry x="39" y="15" width="281" height="341" as="geometry" />
          </mxCell>
        </UserObject>
        <UserObject label="" tags="Background" id="nstGioj7b0INnl22QBqY-26">
          <mxCell style="vsdxID=20;edgeStyle=none;startArrow=none;endArrow=block;startSize=5;endSize=5;strokeWidth=2;spacingTop=0;spacingBottom=0;spacingLeft=0;spacingRight=0;verticalAlign=middle;html=1;labelBackgroundColor=#ffffff;rounded=0;" edge="1" parent="1">
            <mxGeometry relative="1" as="geometry">
              <mxPoint x="-31" y="102" as="offset" />
              <Array as="points">
                <mxPoint x="523.2" y="181" />
                <mxPoint x="523.2" y="181" />
              </Array>
              <mxPoint x="493" y="181" as="sourcePoint" />
              <mxPoint x="556" y="181" as="targetPoint" />
            </mxGeometry>
          </mxCell>
        </UserObject>
        <mxCell id="nstGioj7b0INnl22QBqY-73" value="文件转移" style="edgeLabel;html=1;align=center;verticalAlign=middle;resizable=0;points=[];" vertex="1" connectable="0" parent="nstGioj7b0INnl22QBqY-26">
          <mxGeometry x="-0.1429" y="4" relative="1" as="geometry">
            <mxPoint as="offset" />
          </mxGeometry>
        </mxCell>
        <UserObject label="&lt;div style=&quot;font-size: 1px&quot;&gt;&lt;p style=&quot;text-align:center;margin-left:0;margin-right:0;margin-top:0px;margin-bottom:0px;text-indent:0;vertical-align:middle;direction:ltr;&quot;&gt;&lt;font style=&quot;font-size:12px;font-family:0;color:#000000;direction:ltr;letter-spacing:0px;line-height:120%;opacity:1&quot;&gt;下载文件&lt;/font&gt;&lt;/p&gt;&lt;/div&gt;" tags="Background" id="nstGioj7b0INnl22QBqY-27">
          <mxCell style="vsdxID=21;edgeStyle=none;startArrow=none;endArrow=block;startSize=5;endSize=5;strokeWidth=2;spacingTop=0;spacingBottom=0;spacingLeft=0;spacingRight=0;verticalAlign=middle;html=1;labelBackgroundColor=#ffffff;rounded=0;align=center;" edge="1" parent="1">
            <mxGeometry relative="1" as="geometry">
              <mxPoint x="-19" as="offset" />
              <Array as="points">
                <mxPoint x="773" y="367.25" />
              </Array>
              <mxPoint x="773" y="309" as="sourcePoint" />
              <mxPoint x="644" y="367" as="targetPoint" />
            </mxGeometry>
          </mxCell>
        </UserObject>
        <UserObject label="&lt;div style=&quot;font-size: 1px&quot;&gt;&lt;p style=&quot;text-align:center;margin-left:0;margin-right:0;margin-top:0px;margin-bottom:0px;text-indent:0;vertical-align:middle;direction:ltr;&quot;&gt;&lt;font style=&quot;font-size:12px;font-family:0;color:#000000;direction:ltr;letter-spacing:0px;line-height:120%;opacity:1&quot;&gt;mock作业监控&lt;/font&gt;&lt;/p&gt;&lt;/div&gt;" tags="Background" id="nstGioj7b0INnl22QBqY-28">
          <mxCell style="vsdxID=22;edgeStyle=none;startArrow=none;endArrow=block;startSize=5;endSize=5;strokeWidth=2;spacingTop=0;spacingBottom=0;spacingLeft=0;spacingRight=0;verticalAlign=middle;html=1;labelBackgroundColor=#ffffff;rounded=0;align=center;" edge="1" parent="1">
            <mxGeometry relative="1" as="geometry">
              <mxPoint x="20" y="-3" as="offset" />
              <Array as="points">
                <mxPoint x="714.69" y="522" />
                <mxPoint x="714.69" y="522" />
              </Array>
              <mxPoint x="786" y="522" as="sourcePoint" />
              <mxPoint x="646" y="522" as="targetPoint" />
            </mxGeometry>
          </mxCell>
        </UserObject>
        <UserObject label="" tags="Background" id="nstGioj7b0INnl22QBqY-29">
          <mxCell style="vsdxID=26;edgeStyle=none;startArrow=none;endArrow=block;startSize=5;endSize=5;strokeWidth=2;spacingTop=0;spacingBottom=0;spacingLeft=0;spacingRight=0;verticalAlign=middle;html=1;labelBackgroundColor=#ffffff;rounded=0;" edge="1" parent="1">
            <mxGeometry relative="1" as="geometry">
              <mxPoint x="-52" y="146" as="offset" />
              <Array as="points">
                <mxPoint x="682.13" y="181" />
                <mxPoint x="682.13" y="271" />
              </Array>
              <mxPoint x="631" y="181" as="sourcePoint" />
              <mxPoint x="734" y="271" as="targetPoint" />
            </mxGeometry>
          </mxCell>
        </UserObject>
        <UserObject label="&lt;div style=&quot;font-size: 1px&quot;&gt;&lt;p style=&quot;text-align:center;margin-left:0;margin-right:0;margin-top:0px;margin-bottom:0px;text-indent:0;vertical-align:middle;direction:ltr;&quot;&gt;&lt;font style=&quot;font-size:12px;font-family:0;color:#000000;direction:ltr;letter-spacing:0px;line-height:120%;opacity:1&quot;&gt;上传文件&lt;/font&gt;&lt;/p&gt;&lt;/div&gt;" tags="Background" id="nstGioj7b0INnl22QBqY-30">
          <mxCell style="vsdxID=30;edgeStyle=none;startArrow=none;endArrow=block;startSize=5;endSize=5;strokeWidth=2;spacingTop=0;spacingBottom=0;spacingLeft=0;spacingRight=0;verticalAlign=middle;html=1;labelBackgroundColor=#ffffff;rounded=0;align=center;" edge="1" parent="1">
            <mxGeometry relative="1" as="geometry">
              <mxPoint x="56" y="16" as="offset" />
              <Array as="points">
                <mxPoint x="454.33" y="367" />
              </Array>
              <mxPoint x="569" y="367" as="sourcePoint" />
              <mxPoint x="454" y="219" as="targetPoint" />
            </mxGeometry>
          </mxCell>
        </UserObject>
        <UserObject label="&lt;div style=&quot;font-size: 1px&quot;&gt;&lt;p style=&quot;text-align:center;margin-left:0;margin-right:0;margin-top:0px;margin-bottom:0px;text-indent:0;vertical-align:middle;direction:ltr;&quot;&gt;&lt;font style=&quot;font-size:12px;font-family:0;color:#000000;direction:ltr;letter-spacing:0px;line-height:120%;opacity:1&quot;&gt;上传下载文件&lt;/font&gt;&lt;/p&gt;&lt;/div&gt;" tags="Background" id="nstGioj7b0INnl22QBqY-31">
          <mxCell style="vsdxID=23;edgeStyle=none;startArrow=none;endArrow=block;startSize=5;endSize=5;strokeWidth=2;spacingTop=0;spacingBottom=0;spacingLeft=0;spacingRight=0;verticalAlign=middle;html=1;labelBackgroundColor=#ffffff;rounded=0;align=center;exitX=0.5064935064935064;exitY=0;exitDx=0;exitDy=0;exitPerimeter=0;entryX=0.5064935064935064;entryY=1;entryDx=0;entryDy=0;entryPerimeter=0;" edge="1" parent="1">
            <mxGeometry relative="1" as="geometry">
              <mxPoint x="-1" y="30" as="offset" />
              <Array as="points">
                <mxPoint x="609" y="441.75" />
                <mxPoint x="609" y="441.75" />
              </Array>
              <mxPoint x="609.0000000000005" y="497" as="sourcePoint" />
              <mxPoint x="609.0000000000005" y="386" as="targetPoint" />
            </mxGeometry>
          </mxCell>
        </UserObject>
        <UserObject label="" tags="Background" id="nstGioj7b0INnl22QBqY-33">
          <mxCell style="vsdxID=25;edgeStyle=none;startArrow=none;endArrow=block;startSize=5;endSize=5;strokeWidth=2;spacingTop=0;spacingBottom=0;spacingLeft=0;spacingRight=0;verticalAlign=middle;html=1;labelBackgroundColor=#ffffff;rounded=0;exitX=1;exitY=0.6625;exitDx=0;exitDy=0;exitPerimeter=0;entryX=0;entryY=0.5;entryDx=0;entryDy=0;entryPerimeter=0;" edge="1" parent="1">
            <mxGeometry relative="1" as="geometry">
              <mxPoint x="-58" y="102" as="offset" />
              <Array as="points">
                <mxPoint x="511.35" y="535" />
                <mxPoint x="511.35" y="535" />
              </Array>
              <mxPoint x="455" y="535" as="sourcePoint" />
              <mxPoint x="570" y="535" as="targetPoint" />
            </mxGeometry>
          </mxCell>
        </UserObject>
        <mxCell id="nstGioj7b0INnl22QBqY-34" vertex="1" parent="1">
          <mxGeometry x="367" y="118" as="geometry" />
        </mxCell>
        <UserObject label="&lt;div style=&quot;font-size: 1px&quot;&gt;&lt;p style=&quot;text-align:center;margin-left:0;margin-right:0;margin-top:0px;margin-bottom:0px;text-indent:0;vertical-align:middle;direction:ltr;&quot;&gt;&lt;font style=&quot;font-size:12px;font-family:0;color:#000000;direction:ltr;letter-spacing:0px;line-height:120%;opacity:1&quot;&gt;注册账号&lt;/font&gt;&lt;/p&gt;&lt;/div&gt;" tags="Background" id="nstGioj7b0INnl22QBqY-35">
          <mxCell style="vsdxID=27;edgeStyle=none;startArrow=none;endArrow=block;startSize=5;endSize=5;strokeWidth=2;spacingTop=0;spacingBottom=0;spacingLeft=0;spacingRight=0;verticalAlign=middle;html=1;labelBackgroundColor=#ffffff;rounded=0;align=center;exitX=1;exitY=0.5384615384615384;exitDx=0;exitDy=0;exitPerimeter=0;" edge="1" parent="1" target="nstGioj7b0INnl22QBqY-34">
            <mxGeometry relative="1" as="geometry">
              <mxPoint x="13" y="-1" as="offset" />
              <Array as="points">
                <mxPoint x="311.16" y="118" />
                <mxPoint x="311.16" y="118" />
              </Array>
              <mxPoint x="258" y="118.00000000000011" as="sourcePoint" />
            </mxGeometry>
          </mxCell>
        </UserObject>
        <mxCell id="nstGioj7b0INnl22QBqY-36" vertex="1" parent="1">
          <mxGeometry x="631" y="181" as="geometry" />
        </mxCell>
        <UserObject label="" tags="Background" id="nstGioj7b0INnl22QBqY-37">
          <mxCell style="vsdxID=28;edgeStyle=none;startArrow=none;endArrow=block;startSize=5;endSize=5;strokeWidth=2;spacingTop=0;spacingBottom=0;spacingLeft=0;spacingRight=0;verticalAlign=middle;html=1;labelBackgroundColor=#ffffff;rounded=0;entryX=0;entryY=0.5;entryDx=0;entryDy=0;entryPerimeter=0;" edge="1" parent="1" source="nstGioj7b0INnl22QBqY-36">
            <mxGeometry relative="1" as="geometry">
              <mxPoint x="-51" y="74" as="offset" />
              <Array as="points">
                <mxPoint x="681.88" y="181" />
                <mxPoint x="681.88" y="127" />
              </Array>
              <mxPoint x="733" y="127" as="targetPoint" />
            </mxGeometry>
          </mxCell>
        </UserObject>
        <mxCell id="nstGioj7b0INnl22QBqY-38" vertex="1" parent="1">
          <mxGeometry x="1037" y="118" as="geometry" />
        </mxCell>
        <UserObject label="" tags="Background" id="nstGioj7b0INnl22QBqY-39">
          <mxCell style="vsdxID=29;edgeStyle=none;startArrow=none;endArrow=block;startSize=5;endSize=5;strokeWidth=2;spacingTop=0;spacingBottom=0;spacingLeft=0;spacingRight=0;verticalAlign=middle;html=1;labelBackgroundColor=#ffffff;rounded=0;exitX=1;exitY=0.5384615384615384;exitDx=0;exitDy=0;exitPerimeter=0;" edge="1" parent="1" target="nstGioj7b0INnl22QBqY-38">
            <mxGeometry relative="1" as="geometry">
              <mxPoint x="-46" y="102" as="offset" />
              <Array as="points">
                <mxPoint x="988.24" y="118" />
                <mxPoint x="988.24" y="118" />
              </Array>
              <mxPoint x="945" y="118.00000000000011" as="sourcePoint" />
            </mxGeometry>
          </mxCell>
        </UserObject>
        <mxCell id="nstGioj7b0INnl22QBqY-40" vertex="1" parent="1">
          <mxGeometry x="879" y="328" as="geometry" />
        </mxCell>
        <UserObject label="&lt;div style=&quot;font-size: 1px&quot;&gt;&lt;p style=&quot;text-align:center;margin-left:0;margin-right:0;margin-top:0px;margin-bottom:0px;text-indent:0;vertical-align:middle;direction:ltr;&quot;&gt;&lt;font style=&quot;font-size:12px;font-family:0;color:#000000;direction:ltr;letter-spacing:0px;line-height:120%;opacity:1&quot;&gt;注册定时推送任务&lt;br/&gt;&lt;/font&gt;&lt;/p&gt;&lt;/div&gt;" tags="Background" id="nstGioj7b0INnl22QBqY-41">
          <mxCell style="vsdxID=31;edgeStyle=none;startArrow=none;endArrow=block;startSize=5;endSize=5;strokeWidth=2;spacingTop=0;spacingBottom=0;spacingLeft=0;spacingRight=0;verticalAlign=middle;html=1;labelBackgroundColor=#ffffff;rounded=0;align=center;entryX=0.4675324675324675;entryY=0;entryDx=0;entryDy=0;entryPerimeter=0;" edge="1" parent="1" source="nstGioj7b0INnl22QBqY-40">
            <mxGeometry relative="1" as="geometry">
              <mxPoint x="79" y="-175" as="offset" />
              <Array as="points">
                <mxPoint x="372.34" y="328" />
                <mxPoint x="372.34" y="55.67" />
                <mxPoint x="769.33" y="55.67" />
              </Array>
              <mxPoint x="769" y="87" as="targetPoint" />
            </mxGeometry>
          </mxCell>
        </UserObject>
        <mxCell id="nstGioj7b0INnl22QBqY-42" vertex="1" parent="1">
          <mxGeometry x="373" y="278" as="geometry" />
        </mxCell>
        <UserObject label="&lt;div style=&quot;font-size: 1px&quot;&gt;&lt;p style=&quot;text-align:center;margin-left:0;margin-right:0;margin-top:0px;margin-bottom:0px;text-indent:0;vertical-align:middle;direction:ltr;&quot;&gt;&lt;font style=&quot;font-size:12px;font-family:0;color:#000000;direction:ltr;letter-spacing:0px;line-height:120%;opacity:1&quot;&gt;健康检查&lt;/font&gt;&lt;/p&gt;&lt;/div&gt;" tags="Background" id="nstGioj7b0INnl22QBqY-43">
          <mxCell style="vsdxID=32;edgeStyle=none;startArrow=none;endArrow=block;startSize=5;endSize=5;strokeWidth=2;spacingTop=0;spacingBottom=0;spacingLeft=0;spacingRight=0;verticalAlign=middle;html=1;labelBackgroundColor=#ffffff;rounded=0;align=center;exitX=1;exitY=0.5076923076923077;exitDx=0;exitDy=0;exitPerimeter=0;" edge="1" parent="1" target="nstGioj7b0INnl22QBqY-42">
            <mxGeometry relative="1" as="geometry">
              <mxPoint x="19" y="-1" as="offset" />
              <Array as="points">
                <mxPoint x="314.75" y="278" />
                <mxPoint x="314.75" y="278" />
              </Array>
              <mxPoint x="257.0000000000002" y="278" as="sourcePoint" />
            </mxGeometry>
          </mxCell>
        </UserObject>
        <mxCell id="nstGioj7b0INnl22QBqY-44" vertex="1" parent="1">
          <mxGeometry x="178" y="132" as="geometry" />
        </mxCell>
        <UserObject label="" tags="Background" id="nstGioj7b0INnl22QBqY-45">
          <mxCell style="vsdxID=33;edgeStyle=none;startArrow=none;endArrow=block;startSize=5;endSize=5;strokeWidth=2;spacingTop=0;spacingBottom=0;spacingLeft=0;spacingRight=0;verticalAlign=middle;html=1;labelBackgroundColor=#ffffff;rounded=0;exitX=1;exitY=0.627906976744186;exitDx=0;exitDy=0;exitPerimeter=0;" edge="1" parent="1" target="nstGioj7b0INnl22QBqY-44">
            <mxGeometry relative="1" as="geometry">
              <mxPoint x="-30" y="102" as="offset" />
              <Array as="points">
                <mxPoint x="147.88" y="132" />
                <mxPoint x="147.88" y="132" />
              </Array>
              <mxPoint x="117.00000000000023" y="132" as="sourcePoint" />
            </mxGeometry>
          </mxCell>
        </UserObject>
        <UserObject label="&lt;div style=&quot;font-size: 1px&quot;&gt;&lt;p style=&quot;text-align:center;margin-left:0;margin-right:0;margin-top:0px;margin-bottom:0px;text-indent:0;vertical-align:middle;direction:ltr;&quot;&gt;&lt;font style=&quot;font-size:12px;font-family:0;color:#000000;direction:ltr;letter-spacing:0px;line-height:120%;opacity:1&quot;&gt;健康检查&lt;/font&gt;&lt;/p&gt;&lt;/div&gt;" tags="Background" id="nstGioj7b0INnl22QBqY-46">
          <mxCell style="vsdxID=34;edgeStyle=none;startArrow=none;endArrow=block;startSize=5;endSize=5;strokeWidth=2;spacingTop=0;spacingBottom=0;spacingLeft=0;spacingRight=0;verticalAlign=middle;html=1;labelBackgroundColor=#ffffff;rounded=0;align=center;exitX=0.5066666666666667;exitY=0;exitDx=0;exitDy=0;exitPerimeter=0;entryX=0.5064935064935064;entryY=1;entryDx=0;entryDy=0;entryPerimeter=0;" edge="1" parent="1">
            <mxGeometry relative="1" as="geometry">
              <mxPoint y="19" as="offset" />
              <Array as="points">
                <mxPoint x="220" y="196.33" />
                <mxPoint x="220" y="196.33" />
              </Array>
              <mxPoint x="220" y="245" as="sourcePoint" />
              <mxPoint x="220" y="148.0000000000001" as="targetPoint" />
            </mxGeometry>
          </mxCell>
        </UserObject>
        <mxCell id="nstGioj7b0INnl22QBqY-49" value="tftp-toolbix" style="sketch=0;aspect=fixed;pointerEvents=1;shadow=0;dashed=0;html=1;strokeColor=none;labelPosition=center;verticalLabelPosition=bottom;verticalAlign=top;align=center;fillColor=#00188D;shape=mxgraph.azure.health_monitoring" vertex="1" parent="1">
          <mxGeometry x="192" y="257" width="50" height="42" as="geometry" />
        </mxCell>
        <mxCell id="nstGioj7b0INnl22QBqY-50" value="用户接收文件服务器" style="sketch=0;pointerEvents=1;shadow=0;dashed=0;html=1;strokeColor=none;labelPosition=center;verticalLabelPosition=bottom;verticalAlign=top;align=center;fillColor=#32699e;shape=mxgraph.mscae.system_center.distribution_point" vertex="1" parent="1">
          <mxGeometry x="1053" y="89" width="44" height="50" as="geometry" />
        </mxCell>
        <mxCell id="nstGioj7b0INnl22QBqY-52" value="上传目录" style="sketch=0;aspect=fixed;pointerEvents=1;shadow=0;dashed=0;html=1;strokeColor=none;labelPosition=center;verticalLabelPosition=bottom;verticalAlign=top;align=center;fillColor=#32699e;shape=mxgraph.azure.server_rack" vertex="1" parent="1">
          <mxGeometry x="425" y="148" width="50" height="50" as="geometry" />
        </mxCell>
        <mxCell id="nstGioj7b0INnl22QBqY-53" value="文件数据" style="sketch=0;aspect=fixed;pointerEvents=1;shadow=0;dashed=0;html=1;strokeColor=none;labelPosition=center;verticalLabelPosition=bottom;verticalAlign=top;align=center;shape=mxgraph.azure.rdp_remoting_file;fillColor=#32699e;" vertex="1" parent="1">
          <mxGeometry x="587" y="504" width="48" height="50" as="geometry" />
        </mxCell>
        <mxCell id="nstGioj7b0INnl22QBqY-55" value="用户" style="sketch=0;pointerEvents=1;shadow=0;dashed=0;html=1;strokeColor=none;labelPosition=center;verticalLabelPosition=bottom;verticalAlign=top;align=center;fillColor=#32699e;shape=mxgraph.mscae.intune.groups" vertex="1" parent="1">
          <mxGeometry x="375" y="506" width="50" height="48" as="geometry" />
        </mxCell>
        <mxCell id="nstGioj7b0INnl22QBqY-56" value="tftp-gui&lt;div&gt;&lt;br&gt;&lt;/div&gt;" style="sketch=0;aspect=fixed;pointerEvents=1;shadow=0;dashed=0;html=1;strokeColor=none;labelPosition=center;verticalLabelPosition=bottom;verticalAlign=top;align=center;fillColor=#32699e;shape=mxgraph.mscae.enterprise.app_generic" vertex="1" parent="1">
          <mxGeometry x="50" y="109" width="50" height="39" as="geometry" />
        </mxCell>
        <mxCell id="nstGioj7b0INnl22QBqY-57" value="tftp-web" style="sketch=0;pointerEvents=1;shadow=0;dashed=0;html=1;strokeColor=none;labelPosition=center;verticalLabelPosition=bottom;verticalAlign=top;align=center;fillColor=#32699e;shape=mxgraph.mscae.oms.wire_data" vertex="1" parent="1">
          <mxGeometry x="192" y="98" width="50" height="50" as="geometry" />
        </mxCell>
        <mxCell id="nstGioj7b0INnl22QBqY-58" value="tftp-transfer" style="sketch=0;pointerEvents=1;shadow=0;dashed=0;html=1;strokeColor=none;labelPosition=center;verticalLabelPosition=bottom;verticalAlign=top;align=center;fillColor=#32699e;shape=mxgraph.mscae.oms.wire_data" vertex="1" parent="1">
          <mxGeometry x="581" y="156" width="50" height="50" as="geometry" />
        </mxCell>
        <mxCell id="nstGioj7b0INnl22QBqY-59" value="sftpgo" style="sketch=0;pointerEvents=1;shadow=0;dashed=0;html=1;strokeColor=none;labelPosition=center;verticalLabelPosition=bottom;verticalAlign=top;align=center;fillColor=#32699e;shape=mxgraph.mscae.oms.wire_data" vertex="1" parent="1">
          <mxGeometry x="585" y="334" width="50" height="50" as="geometry" />
        </mxCell>
        <mxCell id="nstGioj7b0INnl22QBqY-60" value="tftp-job" style="sketch=0;pointerEvents=1;shadow=0;dashed=0;html=1;strokeColor=none;labelPosition=center;verticalLabelPosition=bottom;verticalAlign=top;align=center;fillColor=#32699e;shape=mxgraph.mscae.oms.wire_data" vertex="1" parent="1">
          <mxGeometry x="886" y="89" width="50" height="50" as="geometry" />
        </mxCell>
        <mxCell id="nstGioj7b0INnl22QBqY-61" value="tftp-sftpgo-monitor" style="sketch=0;pointerEvents=1;shadow=0;dashed=0;html=1;strokeColor=none;labelPosition=center;verticalLabelPosition=bottom;verticalAlign=top;align=center;fillColor=#32699e;shape=mxgraph.mscae.oms.wire_data" vertex="1" parent="1">
          <mxGeometry x="883" y="299" width="50" height="50" as="geometry" />
        </mxCell>
        <mxCell id="nstGioj7b0INnl22QBqY-62" style="edgeStyle=orthogonalEdgeStyle;rounded=0;orthogonalLoop=1;jettySize=auto;html=1;exitX=0.76;exitY=0.76;exitDx=0;exitDy=0;exitPerimeter=0;entryX=0.771;entryY=0.533;entryDx=0;entryDy=0;entryPerimeter=0;" edge="1" parent="1" source="nstGioj7b0INnl22QBqY-59" target="nstGioj7b0INnl22QBqY-59">
          <mxGeometry relative="1" as="geometry" />
        </mxCell>
        <mxCell id="nstGioj7b0INnl22QBqY-63" value="tftp-monitor" style="sketch=0;pointerEvents=1;shadow=0;dashed=0;html=1;strokeColor=none;labelPosition=center;verticalLabelPosition=bottom;verticalAlign=top;align=center;fillColor=#32699e;shape=mxgraph.mscae.oms.wire_data" vertex="1" parent="1">
          <mxGeometry x="805" y="495" width="50" height="50" as="geometry" />
        </mxCell>
        <mxCell id="nstGioj7b0INnl22QBqY-65" style="edgeStyle=orthogonalEdgeStyle;rounded=0;orthogonalLoop=1;jettySize=auto;html=1;exitX=0.24;exitY=0.24;exitDx=0;exitDy=0;exitPerimeter=0;entryX=0.76;entryY=0.24;entryDx=0;entryDy=0;entryPerimeter=0;" edge="1" parent="1" source="nstGioj7b0INnl22QBqY-59" target="nstGioj7b0INnl22QBqY-59">
          <mxGeometry relative="1" as="geometry" />
        </mxCell>
        <mxCell id="nstGioj7b0INnl22QBqY-68" style="edgeStyle=orthogonalEdgeStyle;rounded=0;orthogonalLoop=1;jettySize=auto;html=1;entryX=0.24;entryY=0.76;entryDx=0;entryDy=0;entryPerimeter=0;" edge="1" parent="1" target="nstGioj7b0INnl22QBqY-60">
          <mxGeometry relative="1" as="geometry">
            <mxPoint x="810" y="126.99999999999989" as="sourcePoint" />
          </mxGeometry>
        </mxCell>
        <mxCell id="nstGioj7b0INnl22QBqY-69" style="edgeStyle=orthogonalEdgeStyle;rounded=0;orthogonalLoop=1;jettySize=auto;html=1;exitX=0.76;exitY=0.76;exitDx=0;exitDy=0;exitPerimeter=0;entryX=0.76;entryY=0.24;entryDx=0;entryDy=0;entryPerimeter=0;" edge="1" parent="1" source="nstGioj7b0INnl22QBqY-60" target="nstGioj7b0INnl22QBqY-60">
          <mxGeometry relative="1" as="geometry" />
        </mxCell>
        <mxCell id="nstGioj7b0INnl22QBqY-71" value="推送目录" style="sketch=0;aspect=fixed;pointerEvents=1;shadow=0;dashed=0;html=1;strokeColor=none;labelPosition=center;verticalLabelPosition=bottom;verticalAlign=top;align=center;fillColor=#32699e;shape=mxgraph.azure.server_rack" vertex="1" parent="1">
          <mxGeometry x="748" y="101.5" width="50" height="50" as="geometry" />
        </mxCell>
        <mxCell id="nstGioj7b0INnl22QBqY-72" value="下载目录" style="sketch=0;aspect=fixed;pointerEvents=1;shadow=0;dashed=0;html=1;strokeColor=none;labelPosition=center;verticalLabelPosition=bottom;verticalAlign=top;align=center;fillColor=#32699e;shape=mxgraph.azure.server_rack" vertex="1" parent="1">
          <mxGeometry x="742" y="228" width="50" height="50" as="geometry" />
        </mxCell>
      </root>
    </mxGraphModel>
  </diagram>
</mxfile>
